<svg width="632" height="1217" viewBox="0 0 632 1217" fill="none" xmlns="http://www.w3.org/2000/svg">
<rect width="632" height="1217" fill="#FF5B5B"/>
<path d="M240.942 931.417C175.345 939.924 52.982 987.622 0 1010.41V1217H632V1010.41C606.77 1007.37 545.967 994.002 504.591 964.836C452.87 928.379 322.938 920.784 240.942 931.417Z" fill="#1DD144"/>
<path d="M252.706 933.388C253.006 961.988 247.706 989.888 237.206 1016.39C235.306 1021.19 243.106 1023.29 245.006 1018.49C255.806 991.288 261.106 962.488 260.806 933.288C260.706 928.188 252.706 928.188 252.706 933.388Z" fill="black"/>
<path d="M372.505 934.588C377.005 962.488 389.705 988.188 408.905 1008.79C412.405 1012.59 418.105 1006.89 414.605 1003.09C396.205 983.388 384.505 958.988 380.205 932.388C379.405 927.388 371.705 929.488 372.505 934.588Z" fill="black"/>
<path d="M457.106 829.588C457.506 826.988 457.306 824.288 456.606 821.788C457.706 818.988 457.906 815.688 456.706 811.988C452.606 799.688 448.206 787.488 443.406 775.388C438.906 763.988 434.806 751.088 427.806 740.988C413.306 719.988 383.206 722.788 360.606 724.188C308.806 727.488 259.306 744.088 210.906 761.888C203.406 764.688 194.306 767.488 188.406 772.788C185.606 773.888 183.006 775.888 181.006 779.188C172.706 792.788 170.206 808.388 169.006 823.988C167.706 840.888 168.106 857.688 170.606 874.388C174.806 902.788 186.706 940.088 218.406 945.588C219.806 946.588 221.406 947.488 223.406 948.088C265.206 961.088 310.106 960.688 351.506 947.788C366.006 944.788 380.106 940.788 393.606 934.188C413.406 924.488 429.606 908.688 445.106 893.388C445.506 892.988 445.906 892.588 446.306 892.088C447.206 891.188 448.006 890.188 448.806 888.988C460.206 870.688 460.106 849.988 457.106 829.588Z" fill="#DFC224"/>
<path d="M433.606 754.188C434.206 750.188 431.906 745.588 426.706 745.488C426.506 745.488 426.306 745.488 426.006 745.488C428.606 742.288 427.206 736.088 421.806 736.088C420.906 736.088 420.206 736.288 419.506 736.588C419.606 733.688 418.106 730.988 414.306 730.288C410.506 729.688 406.706 728.988 402.806 728.388C401.906 727.988 400.906 727.688 399.706 727.688C399.206 727.688 398.806 727.688 398.306 727.688C395.406 727.188 392.506 726.788 389.606 726.288C387.406 725.888 385.406 726.488 383.906 727.588C320.106 727.888 256.706 740.588 197.806 765.188C195.106 766.288 193.606 768.588 193.206 770.988C188.706 773.288 184.406 775.888 180.206 778.788C178.406 780.088 178.506 782.288 179.506 783.688C178.406 784.488 177.306 785.388 176.306 786.288C175.606 786.888 175.306 787.488 175.206 788.188C175.106 788.188 175.106 788.288 175.006 788.288C169.606 791.488 174.506 799.788 179.906 796.688C188.706 791.488 197.906 787.388 207.706 784.488C208.606 784.188 209.306 783.788 209.806 783.288C229.806 776.888 249.906 771.288 270.306 766.688C294.906 764.288 319.706 763.488 344.406 764.388C345.706 764.388 346.806 764.188 347.706 763.788C374.706 764.988 401.606 766.488 428.506 768.388C429.706 768.488 430.706 768.288 431.606 767.988C438.206 766.688 438.706 757.588 433.606 754.188Z" fill="#C0A32F"/>
<path d="M463.605 852.588C463.905 851.888 464.005 851.188 463.805 850.288C463.705 849.988 463.705 849.788 463.605 849.488C463.605 849.388 463.605 849.388 463.605 849.288C463.605 847.488 463.505 845.688 463.305 843.988C463.205 842.788 462.705 841.888 462.005 841.288C461.805 840.388 461.605 839.388 461.405 838.488C462.305 837.888 462.905 836.788 463.005 835.388C463.405 823.888 458.405 813.788 454.105 803.588C452.405 795.888 450.705 788.288 449.005 780.588C448.705 779.188 447.805 778.388 446.805 777.988C446.605 777.788 446.405 777.688 446.205 777.588C445.005 774.288 439.505 773.488 438.605 777.688C436.105 789.388 439.605 799.988 443.105 811.088C445.205 817.788 447.405 824.488 449.505 831.188C451.705 850.888 447.705 870.888 437.405 888.188C434.605 892.788 431.505 897.188 428.005 901.188C425.805 903.788 422.905 906.088 422.705 909.688C422.305 915.688 427.505 918.388 432.505 915.888C434.305 914.988 434.805 913.388 434.405 911.888C437.605 907.088 440.905 902.288 444.305 897.588C446.105 898.988 448.705 899.088 449.905 896.488C451.305 893.288 452.605 890.088 453.805 886.788C454.305 886.488 454.805 885.988 455.105 885.288C455.305 884.888 455.505 884.588 455.705 884.188C457.405 884.388 459.205 883.588 459.805 881.288C461.105 876.088 461.905 870.788 462.305 865.488C462.905 861.288 463.405 856.988 463.605 852.588Z" fill="#F7F7F7"/>
<path d="M467.706 660.188C461.406 647.288 452.006 635.288 438.106 630.188C423.806 624.988 408.606 629.488 396.006 636.988C395.806 637.088 395.606 637.088 395.406 637.188C363.606 648.688 339.106 673.088 309.106 687.688C307.706 687.488 306.306 687.788 304.806 688.488C299.806 690.888 294.806 692.988 289.706 694.988C287.406 693.488 284.506 693.088 281.606 693.488C268.706 695.288 256.106 697.988 243.706 701.788C241.306 702.488 239.606 703.788 238.506 705.388C225.006 704.988 211.506 705.688 198.106 707.288C196.206 707.488 194.506 708.488 193.206 709.788C187.006 711.188 180.906 712.788 174.806 714.788C173.206 714.388 171.306 714.688 169.406 716.088C168.906 716.388 168.506 716.788 168.106 717.088C165.806 717.888 163.506 718.788 161.306 719.688C158.306 720.888 158.506 724.888 160.406 726.188C155.306 735.688 155.606 747.388 163.506 756.488C174.006 768.588 192.706 768.288 203.506 756.888C213.906 757.688 225.306 757.388 234.106 751.988C241.406 752.088 248.506 751.188 254.606 747.188C255.106 746.888 255.506 746.488 255.906 746.188C256.806 746.088 257.806 745.788 258.706 745.388C263.706 742.788 268.806 740.488 273.906 738.288C275.606 738.988 277.706 739.088 280.106 738.288C319.806 724.588 361.506 722.288 403.106 723.188C404.806 725.088 407.006 726.588 409.706 726.888C411.806 727.188 413.806 726.988 415.506 726.488C416.506 726.988 417.606 727.288 418.906 727.488C424.506 728.188 430.106 728.388 435.606 728.288C437.006 728.688 438.306 729.188 439.606 729.788C442.006 730.888 444.606 731.188 447.006 730.688C447.406 730.588 447.906 730.488 448.406 730.388C452.806 728.988 457.106 727.088 461.106 724.788C462.806 724.388 464.506 723.888 466.206 723.388C470.806 721.988 472.906 718.288 473.006 714.488C475.106 711.688 476.806 708.488 478.006 704.888C482.506 689.588 474.206 673.388 467.706 660.188ZM405.306 659.888C405.106 659.988 404.906 659.988 404.706 660.088C404.806 659.988 404.906 659.988 405.006 659.888C405.106 659.888 405.206 659.888 405.306 659.888Z" fill="#5768A5"/>
<path d="M394.306 625.088C387.606 618.788 382.006 611.388 378.606 602.788C378.106 601.388 377.306 600.188 376.406 599.088C368.906 580.188 357.506 563.988 335.306 561.988C310.606 559.688 292.006 576.788 270.106 584.388C259.306 588.188 247.506 587.388 236.806 591.088C226.206 594.788 218.406 602.388 213.806 612.488C213.706 612.688 213.606 612.888 213.506 613.088C205.606 626.488 205.706 642.788 204.706 658.788C203.606 666.588 202.506 674.488 201.406 682.288C199.906 687.888 197.606 693.188 194.006 698.188C191.906 701.088 194.606 703.888 197.406 703.988C198.206 704.488 199.206 704.788 200.306 704.688C210.806 703.188 221.306 701.788 231.806 700.288C251.506 699.488 271.206 697.288 289.606 690.888C290.606 690.888 291.606 690.788 292.806 690.388C298.606 688.588 304.206 686.388 309.606 683.788C311.506 684.088 313.606 683.788 315.806 682.588C339.206 669.088 362.506 655.388 385.606 641.488C393.806 642.588 401.806 632.088 394.306 625.088Z" fill="#37497C"/>
<path d="M273.406 594.888C276.806 594.188 280.106 592.888 283.106 591.088C285.706 589.688 286.806 585.888 285.106 583.388C283.406 580.788 280.106 579.788 277.406 581.388C274.906 582.788 273.406 583.288 270.306 583.988C267.406 584.588 265.506 588.188 266.406 590.888C267.406 593.988 270.306 595.488 273.406 594.888Z" fill="white"/>
<path d="M305.706 582.788C315.206 574.988 327.406 572.288 339.306 574.988C346.406 576.588 349.406 565.688 342.306 564.088C326.206 560.388 310.506 564.288 297.706 574.788C292.106 579.388 300.106 587.388 305.706 582.788Z" fill="white"/>
<path d="M425.006 639.288C457.006 646.488 465.506 681.188 463.806 709.788C463.406 717.088 474.706 716.988 475.106 709.788C477.106 676.288 465.006 636.688 428.106 628.488C420.906 626.788 417.906 637.688 425.006 639.288Z" fill="white"/>
<path d="M186.206 762.188C162.406 801.688 155.506 851.088 169.706 895.288C175.306 912.588 184.206 928.688 198.906 939.788C212.506 949.988 229.106 954.888 245.706 957.488C290.206 964.688 338.606 964.388 380.906 947.488C413.606 934.388 451.006 910.388 460.806 874.288C475.006 821.988 448.306 774.288 424.706 729.388C422.306 724.788 415.306 728.888 417.706 733.488C437.906 771.888 461.706 812.388 455.906 857.388C453.906 872.888 449.006 887.488 438.606 899.288C426.406 913.088 409.906 924.288 393.706 932.788C354.206 953.488 308.806 955.888 265.106 951.788C231.906 948.588 199.306 940.088 183.406 907.788C161.606 863.388 168.206 807.588 193.206 766.088C195.906 761.888 188.906 757.788 186.206 762.188Z" fill="black"/>
<path d="M171.206 766.388C200.306 768.688 228.306 760.488 255.606 751.388C284.706 741.788 313.406 732.788 344.106 730.088C359.206 728.788 374.306 728.588 389.406 729.588C404.906 730.688 420.006 734.088 435.406 735.788C458.006 738.288 482.306 728.688 482.606 702.688C482.706 691.088 478.406 679.888 473.906 669.388C469.306 658.688 464.106 647.888 456.206 639.088C439.106 620.188 413.006 621.188 391.606 632.088C379.306 638.388 368.706 647.488 357.706 655.788C346.906 663.988 335.506 671.088 323.306 676.888C297.606 689.088 269.306 695.488 241.206 698.888C225.506 700.788 209.706 700.988 193.906 702.688C181.106 703.988 168.106 707.488 158.806 716.988C151.106 724.788 148.106 735.088 151.206 745.588C153.906 754.688 160.306 764.388 170.206 766.288C175.306 767.288 177.406 759.488 172.306 758.488C163.206 756.688 157.306 744.688 157.906 735.988C158.706 723.188 172.206 715.288 183.306 712.488C195.506 709.388 208.506 709.888 221.006 708.888C232.206 708.088 243.306 706.788 254.406 705.088C276.506 701.688 298.306 696.288 318.906 687.588C341.206 678.188 359.006 664.188 378.306 650.088C397.306 636.188 425.206 622.688 446.306 640.588C454.706 647.788 460.006 657.988 464.506 667.788C469.306 678.288 474.306 689.688 474.606 701.388C474.906 715.688 465.406 725.288 451.606 727.588C438.806 729.688 425.806 725.888 413.206 723.988C387.906 720.188 362.206 719.788 336.706 722.688C309.006 725.888 282.806 733.788 256.406 742.588C228.806 751.788 200.806 760.488 171.406 758.188C166.006 757.888 166.006 765.988 171.206 766.388Z" fill="black"/>
<path d="M193.505 707.688C210.905 688.688 207.705 662.688 209.605 638.888C210.805 623.988 214.805 608.688 227.805 599.688C239.205 591.888 253.405 589.888 266.605 586.988C280.105 583.988 291.805 578.688 304.205 572.688C318.605 565.588 335.105 560.088 349.505 570.388C371.305 586.088 374.005 616.988 393.305 635.288C397.105 638.888 402.805 633.188 399.005 629.588C382.405 613.888 378.205 590.188 363.705 572.888C349.105 555.488 329.005 553.288 308.605 561.888C297.505 566.588 287.305 573.088 275.705 576.488C263.705 580.088 251.105 581.388 239.205 585.488C219.005 592.488 206.505 606.888 202.805 627.988C198.605 652.288 205.905 682.288 187.705 702.088C184.305 705.788 190.005 711.488 193.505 707.688Z" fill="black"/>
<path d="M210.906 755.588C199.406 758.588 185.606 762.788 179.606 774.088C177.206 778.688 184.106 782.788 186.606 778.188C191.606 768.888 203.706 765.788 213.106 763.388C218.106 762.088 216.006 754.288 210.906 755.588Z" fill="black"/>
<path d="M268.706 816.088C268.706 820.488 268.706 823.688 267.006 826.688C265.206 829.988 263.106 831.488 260.106 831.488C256.806 831.488 255.606 829.988 252.906 826.288C251.106 823.888 249.406 818.988 249.406 815.288C249.406 811.088 250.406 807.188 251.906 804.188C253.806 800.688 256.506 798.488 259.506 798.488C261.706 799.088 263.706 800.488 265.406 802.688C266.606 804.188 267.206 806.088 267.906 808.388C268.606 810.688 268.706 813.388 268.706 816.088Z" fill="black"/>
<path d="M361.806 808.788C361.806 814.388 361.806 818.388 359.706 822.188C357.406 826.288 354.706 828.288 351.006 828.288C346.806 828.288 345.306 826.288 341.906 821.788C339.606 818.688 337.506 812.488 337.506 807.788C337.506 802.388 338.706 797.488 340.706 793.788C343.006 789.388 346.506 786.588 350.306 786.588C353.106 787.388 355.606 789.088 357.806 791.888C359.306 793.788 360.106 796.288 361.006 799.088C361.806 801.888 361.806 805.388 361.806 808.788Z" fill="black"/>
<path d="M273.905 904.387C284.105 884.087 312.905 903.888 328.505 904.988C343.205 906.088 355.705 897.087 360.905 883.687C362.805 878.887 355.005 876.788 353.105 881.588C337.505 921.788 285.505 863.687 267.005 900.387C264.605 904.987 271.605 909.087 273.905 904.387Z" fill="black"/>
<path d="M245.505 836.488C251.405 841.188 258.405 843.088 265.905 841.988C268.505 841.588 267.405 837.688 264.805 838.088C258.905 838.988 253.005 837.288 248.305 833.588C246.305 831.988 243.505 834.888 245.505 836.488Z" fill="black"/>
<path d="M340.306 838.888C351.406 845.388 364.806 841.988 371.406 830.988C372.706 828.788 369.306 826.688 367.906 828.988C362.406 838.188 351.506 840.788 342.306 835.488C340.106 834.088 338.006 837.588 340.306 838.888Z" fill="black"/>
<path d="M194.339 855.508C179.039 853.608 160.939 855.608 152.939 870.708C145.139 885.308 155.739 898.808 166.239 908.408C170.039 911.908 175.839 906.208 171.939 902.708C163.439 895.108 153.039 884.008 161.439 872.408C168.939 862.008 182.839 862.208 194.339 863.608C199.439 864.208 199.439 856.108 194.339 855.508Z" fill="black"/>
<path d="M436.639 841.208C452.339 842.308 470.439 845.608 473.339 864.208C475.939 880.808 465.339 895.508 456.139 908.208C453.139 912.408 460.139 916.508 463.139 912.308C474.539 896.408 486.939 877.108 479.839 856.708C473.439 838.108 454.039 834.408 436.639 833.208C431.439 832.708 431.539 840.808 436.639 841.208Z" fill="black"/>
</svg>
