<svg width="107" height="129" viewBox="0 0 107 129" fill="none" xmlns="http://www.w3.org/2000/svg">
<ellipse cx="53.5" cy="111" rx="53.5" ry="18" fill="url(#paint0_radial_129_46)" fill-opacity="0.7"/>
<path d="M96.6396 78.6766C96.755 77.9262 96.6973 77.1469 96.4952 76.4253C96.8127 75.6172 96.8704 74.6647 96.5241 73.5968C95.3407 70.0466 94.0708 66.5254 92.6853 63.033C91.3865 59.7426 90.2031 56.0193 88.1827 53.1041C83.9976 47.0429 75.3099 47.8511 68.7869 48.2552C53.8359 49.2077 39.5488 53.9989 25.5792 59.1365C23.4145 59.9446 20.7879 60.7528 19.085 62.2825C18.2769 62.6 17.5264 63.1773 16.9492 64.1298C14.5536 68.0551 13.832 72.5577 13.4856 77.0603C13.1104 81.9381 13.2259 86.7871 13.9474 91.6072C15.1597 99.8042 18.5944 110.57 27.7439 112.158C28.148 112.446 28.6098 112.706 29.187 112.879C41.2517 116.631 54.2111 116.516 66.1604 112.793C70.3455 111.927 74.4151 110.772 78.3116 108.867C84.0265 106.067 88.7023 101.507 93.176 97.0911C93.2915 96.9757 93.4069 96.8602 93.5224 96.7159C93.7821 96.4562 94.013 96.1675 94.2439 95.8212C97.5343 90.5393 97.5054 84.5647 96.6396 78.6766Z" fill="#FF8271"/>
<path d="M89.8568 56.9141C90.0299 55.7595 89.3661 54.4319 87.8652 54.403C87.8075 54.403 87.7498 54.403 87.6632 54.403C88.4136 53.4794 88.0095 51.6899 86.4509 51.6899C86.1912 51.6899 85.9891 51.7476 85.7871 51.8342C85.816 50.9972 85.383 50.2179 84.2862 50.0158C83.1894 49.8427 82.0926 49.6406 80.967 49.4674C80.7072 49.352 80.4186 49.2654 80.0722 49.2654C79.9279 49.2654 79.8125 49.2654 79.6682 49.2654C78.8311 49.1211 77.9941 49.0056 77.1571 48.8613C76.5221 48.7459 75.9449 48.919 75.5119 49.2365C57.0974 49.3231 38.7984 52.9887 21.7981 60.089C21.0188 60.4065 20.5859 61.0703 20.4704 61.763C19.1716 62.4269 17.9305 63.1773 16.7183 64.0143C16.1987 64.3895 16.2276 65.0245 16.5162 65.4286C16.1987 65.6595 15.8812 65.9193 15.5926 66.179C15.3906 66.3522 15.304 66.5254 15.2751 66.7274C15.2463 66.7274 15.2462 66.7563 15.2174 66.7563C13.6588 67.6799 15.0731 70.0755 16.6317 69.1808C19.1716 67.6799 21.827 66.4965 24.6555 65.6595C24.9153 65.5729 25.1174 65.4575 25.2617 65.3132C31.0342 63.4659 36.8357 61.8496 42.7237 60.5219C49.824 59.8292 56.9819 59.5983 64.1111 59.8581C64.4863 59.8581 64.8038 59.8004 65.0635 59.6849C72.8565 60.0313 80.6206 60.4642 88.3848 61.0126C88.7311 61.0414 89.0197 60.9837 89.2795 60.8971C91.1844 60.5219 91.3288 57.8954 89.8568 56.9141Z" fill="#E06F5F"/>
<path d="M98.5155 85.3149C98.6021 85.1129 98.631 84.9108 98.5733 84.6511C98.5444 84.5645 98.5444 84.5067 98.5155 84.4202C98.5155 84.3913 98.5155 84.3913 98.5155 84.3624C98.5155 83.8429 98.4867 83.3234 98.4289 82.8327C98.4001 82.4863 98.2558 82.2266 98.0537 82.0534C97.996 81.7936 97.9383 81.505 97.8805 81.2452C98.1403 81.0721 98.3135 80.7546 98.3424 80.3505C98.4578 77.0312 97.0147 74.1161 95.7736 71.1721C95.2829 68.9497 94.7922 66.7561 94.3016 64.5336C94.215 64.1296 93.9552 63.8986 93.6666 63.7832C93.6088 63.7255 93.5511 63.6966 93.4934 63.6677C93.147 62.7153 91.5596 62.4844 91.2998 63.6966C90.5782 67.0736 91.5884 70.133 92.5986 73.3368C93.2048 75.2706 93.8398 77.2044 94.4459 79.1382C95.0809 84.8242 93.9263 90.5968 90.9535 95.5901C90.1453 96.9178 89.2506 98.1877 88.2404 99.3422C87.6054 100.093 86.7683 100.757 86.7106 101.796C86.5952 103.527 88.096 104.307 89.5392 103.585C90.0587 103.325 90.203 102.864 90.0876 102.431C91.0112 101.045 91.9637 99.6597 92.945 98.3032C93.4645 98.7073 94.215 98.7361 94.5613 97.9857C94.9654 97.0621 95.3406 96.1385 95.687 95.186C95.8313 95.0994 95.9756 94.9551 96.0622 94.7531C96.1199 94.6376 96.1776 94.551 96.2354 94.4356C96.726 94.4933 96.4358 93.8907 96.609 93.2269C96.9842 91.726 98.0249 90.5679 98.1403 89.0382C98.3135 87.826 98.4578 86.5849 98.5155 85.3149Z" fill="#F7F7F7"/>
<path d="M99.6989 29.7828C97.8806 26.0594 95.1675 22.5959 91.1555 21.1239C87.0281 19.623 82.641 20.9218 79.0043 23.0866C78.9465 23.1154 78.8888 23.1154 78.8311 23.1443C69.6527 26.4635 62.5813 33.5061 53.9224 37.72C53.5183 37.6623 53.1143 37.7489 52.6813 37.9509C51.2382 38.6436 49.795 39.2498 48.323 39.827C47.6592 39.3941 46.8222 39.2786 45.9851 39.3941C42.2618 39.9136 38.6251 40.6929 35.0461 41.7897C34.3534 41.9917 33.8627 42.367 33.5452 42.8288C29.6488 42.7133 25.7523 42.9154 21.8846 43.3772C21.3363 43.4349 20.8456 43.7235 20.4704 44.0987C18.6809 44.5028 16.9202 44.9646 15.1596 45.5419C14.6978 45.4264 14.1494 45.513 13.601 45.9171C13.4567 46.0037 13.3412 46.1191 13.2258 46.2057C12.5619 46.4366 11.8981 46.6964 11.2631 46.9562C10.3972 47.3025 10.4549 48.457 11.0033 48.8322C9.53133 51.5742 9.61793 54.9512 11.8981 57.5777C14.9287 61.0701 20.326 60.9835 23.4432 57.6931C26.445 57.924 29.7353 57.8375 32.2753 56.2789C34.3823 56.3077 36.4315 56.048 38.1922 54.8934C38.3365 54.8069 38.4519 54.6914 38.5674 54.6048C38.8271 54.576 39.1158 54.4894 39.3755 54.3739C40.8187 53.6235 42.2907 52.9596 43.7627 52.3247C44.2534 52.5267 44.8595 52.5556 45.5522 52.3247C57.0108 48.3704 69.0466 47.7066 81.0535 47.9664C81.5442 48.5148 82.1792 48.9477 82.9585 49.0343C83.5646 49.1209 84.1419 49.0631 84.6325 48.9188C84.9212 49.0631 85.2386 49.1497 85.6139 49.2075C87.2302 49.4095 88.8465 49.4672 90.434 49.4384C90.838 49.5538 91.2133 49.6981 91.5885 49.8713C92.2812 50.1888 93.0316 50.2754 93.7243 50.1311C93.8398 50.1022 93.9841 50.0733 94.1284 50.0445C95.3984 49.6404 96.6395 49.092 97.794 48.4282C98.2847 48.3127 98.7753 48.1684 99.266 48.0241C100.594 47.62 101.2 46.5521 101.229 45.4553C101.835 44.6471 102.325 43.7235 102.672 42.6844C103.971 38.2684 101.575 33.5927 99.6989 29.7828ZM81.6885 29.6962C81.6308 29.725 81.573 29.725 81.5153 29.7539C81.5442 29.725 81.5731 29.725 81.6019 29.6962C81.6308 29.6962 81.6596 29.6962 81.6885 29.6962Z" fill="#5768A5"/>
<path d="M78.5136 19.652C76.5798 17.8337 74.9634 15.6978 73.9821 13.2156C73.8378 12.8115 73.6069 12.4652 73.3471 12.1477C71.1824 6.6926 67.892 2.01681 61.4845 1.43955C54.3554 0.775708 48.9869 5.71126 42.6659 7.90483C39.5487 9.00162 36.1429 8.77072 33.0546 9.83865C29.9951 10.9066 27.7438 13.1002 26.4161 16.0153C26.3872 16.073 26.3584 16.1308 26.3295 16.1885C24.0493 20.0561 24.0782 24.7608 23.7896 29.3788C23.4721 31.6301 23.1546 33.9103 22.8371 36.1616C22.4042 37.7779 21.7403 39.3076 20.7013 40.7508C20.0951 41.5878 20.8744 42.396 21.6826 42.4248C21.9135 42.5691 22.2021 42.6557 22.5196 42.6269C25.5502 42.1939 28.5808 41.7898 31.6114 41.3569C37.2974 41.126 42.9834 40.491 48.2942 38.6438C48.5828 38.6438 48.8714 38.6149 49.2178 38.4995C50.8918 37.9799 52.5081 37.345 54.0667 36.5945C54.6151 36.6811 55.2212 36.5945 55.8562 36.2482C62.6101 32.3517 69.3352 28.3975 76.0025 24.3855C78.3693 24.703 80.6783 21.6724 78.5136 19.652Z" fill="#37497C"/>
<path d="M43.6184 10.9353C44.5998 10.7333 45.5523 10.358 46.4181 9.83851C47.1686 9.43443 47.4861 8.33763 46.9954 7.61606C46.5047 6.86563 45.5523 6.577 44.773 7.0388C44.0514 7.44288 43.6185 7.5872 42.7237 7.78924C41.8867 7.96242 41.3383 9.00148 41.598 9.78078C41.8867 10.6755 42.7237 11.1085 43.6184 10.9353Z" fill="white"/>
<path d="M52.9411 7.44317C55.6831 5.19187 59.2043 4.41256 62.639 5.19186C64.6883 5.65367 65.5542 2.50762 63.5049 2.04581C58.858 0.977885 54.3265 2.10354 50.6321 5.13414C49.0157 6.46183 51.3248 8.77086 52.9411 7.44317Z" fill="white"/>
<path d="M87.3746 23.7505C96.6107 25.8286 99.064 35.8441 98.5733 44.0988C98.4579 46.2058 101.719 46.177 101.835 44.0988C102.412 34.4298 98.9197 23.0001 88.2693 20.6333C86.1912 20.1427 85.3253 23.2887 87.3746 23.7505Z" fill="white"/>
<path d="M18.4499 59.2232C11.5806 70.624 9.58903 84.8822 13.6876 97.6396C15.3039 102.633 17.8727 107.28 22.1155 110.484C26.0409 113.428 30.8321 114.842 35.6233 115.592C48.4673 117.67 62.4369 117.584 74.6459 112.706C84.0841 108.925 94.8788 101.998 97.7074 91.5784C101.806 76.4831 94.0995 62.7156 87.2878 49.7561C86.5951 48.4284 84.5747 49.6118 85.2674 50.9395C91.0977 62.0228 97.9671 73.7123 96.2931 86.7006C95.7158 91.1743 94.3015 95.3883 91.2998 98.7941C87.7785 102.777 83.0161 106.01 78.3404 108.463C66.9395 114.438 53.8358 115.131 41.2227 113.947C31.6403 113.024 22.231 110.57 17.6418 101.247C11.3497 88.4324 13.2546 72.3269 20.4703 60.3488C21.2496 59.1366 19.2292 57.9532 18.4499 59.2232Z" fill="black"/>
<path d="M14.1205 60.4354C22.5196 61.0993 30.6012 58.7325 38.4808 56.106C46.8799 53.3352 55.1635 50.7375 64.0244 49.9582C68.3827 49.583 72.741 49.5253 77.0993 49.8139C81.5731 50.1314 85.9314 51.1127 90.3762 51.6034C96.8992 52.325 103.913 49.5541 104 42.0498C104.028 38.7017 102.787 35.4691 101.488 32.4385C100.161 29.3501 98.6599 26.2329 96.3797 23.693C91.4442 18.2379 83.911 18.5266 77.7343 21.6726C74.1842 23.491 71.1247 26.1175 67.9498 28.5131C64.8326 30.8799 61.5422 32.9291 58.021 34.6032C50.6032 38.1244 42.435 39.9717 34.3245 40.953C29.7931 41.5014 25.2327 41.5591 20.6724 42.0498C16.978 42.425 13.2258 43.4352 10.5415 46.1772C8.31911 48.4285 7.45322 51.4014 8.34797 54.432C9.12727 57.0585 10.9745 59.8582 13.8319 60.4066C15.3039 60.6952 15.91 58.4439 14.438 58.1553C11.8115 57.6357 10.1086 54.1722 10.2818 51.6611C10.5127 47.9667 14.4092 45.6865 17.613 44.8784C21.1342 43.9836 24.8864 44.1279 28.4942 43.8393C31.7269 43.6084 34.9307 43.2332 38.1344 42.7425C44.5131 41.7612 50.8052 40.2026 56.751 37.6915C63.1874 34.9784 68.325 30.9376 73.8955 26.8679C79.3795 22.856 87.4322 18.9595 93.5223 24.126C95.9468 26.2041 97.4765 29.1481 98.7753 31.9767C100.161 35.0073 101.604 38.2976 101.69 41.6746C101.777 45.802 99.0351 48.5728 95.052 49.2366C91.3576 49.8428 87.6054 48.746 83.9687 48.1976C76.6664 47.1008 69.2486 46.9853 61.8886 47.8224C53.8936 48.746 46.3315 51.0261 38.7117 53.5661C30.7455 56.2215 22.6639 58.7325 14.1783 58.0687C12.6197 57.9821 12.6197 60.32 14.1205 60.4354Z" fill="black"/>
<path d="M20.557 43.4928C25.5791 38.0088 24.6555 30.5045 25.2039 23.6351C25.5503 19.3345 26.7048 14.9185 30.4569 12.3209C33.7473 10.0696 37.8458 9.49229 41.6557 8.65527C45.5522 7.78938 48.9292 6.25965 52.5082 4.52788C56.6644 2.47862 61.4268 0.891161 65.5831 3.86404C71.8752 8.39551 72.6545 17.3141 78.225 22.596C79.3218 23.6351 80.967 21.9899 79.8702 20.9509C75.0789 16.4194 73.8667 9.57888 69.6816 4.58561C65.4676 -0.436531 59.6662 -1.07151 53.7781 1.41069C50.5744 2.76725 47.6303 4.64333 44.2823 5.62467C40.8187 6.66373 37.182 7.03895 33.7473 8.22233C27.917 10.2427 24.3092 14.399 23.2412 20.489C22.029 27.5027 24.136 36.1616 18.8829 41.8764C17.9016 42.9444 19.5468 44.5895 20.557 43.4928Z" fill="black"/>
<path d="M25.5792 57.3181C22.2599 58.184 18.2768 59.3963 16.5451 62.6578C15.8524 63.9855 17.8439 65.1688 18.5655 63.8411C20.0086 61.1569 23.501 60.2621 26.2141 59.5694C27.6573 59.1942 27.0512 56.9429 25.5792 57.3181Z" fill="black"/>
<path d="M42.2618 74.7801C42.2618 76.05 42.2618 76.9736 41.7712 77.8395C41.2516 78.792 40.6455 79.2249 39.7796 79.2249C38.8271 79.2249 38.4808 78.792 37.7015 77.7241C37.182 77.0314 36.6913 75.6171 36.6913 74.5492C36.6913 73.3369 36.9799 72.2113 37.4129 71.3454C37.9613 70.3352 38.7405 69.7002 39.6064 69.7002C40.2414 69.8734 40.8187 70.2775 41.3093 70.9124C41.6557 71.3454 41.8289 71.8938 42.0309 72.5576C42.233 73.2215 42.2618 74.0008 42.2618 74.7801Z" fill="black"/>
<path d="M69.1332 72.6732C69.1332 74.2895 69.1332 75.444 68.527 76.5408C67.8632 77.7242 67.0839 78.3014 66.016 78.3014C64.8038 78.3014 64.3708 77.7242 63.3895 76.4254C62.7256 75.5306 62.1195 73.7411 62.1195 72.3846C62.1195 70.826 62.4658 69.4117 63.0431 68.3438C63.707 67.0738 64.7172 66.2656 65.814 66.2656C66.6221 66.4965 67.3437 66.9872 67.9787 67.7954C68.4116 68.3437 68.6425 69.0653 68.9023 69.8735C69.1332 70.6816 69.1332 71.6918 69.1332 72.6732Z" fill="black"/>
<path d="M43.7627 100.266C46.7067 94.4069 55.0192 100.122 59.5218 100.439C63.7647 100.757 67.3725 98.1591 68.8734 94.2915C69.4218 92.9061 67.1705 92.2999 66.6221 93.6854C62.1195 105.288 47.1108 88.5189 41.7712 99.1116C41.0785 100.439 43.0989 101.623 43.7627 100.266Z" fill="black"/>
<path d="M35.5657 80.6682C37.2686 82.0248 39.289 82.5732 41.4537 82.2557C42.2041 82.1403 41.8866 81.0146 41.1362 81.13C39.4333 81.3898 37.7304 80.8991 36.3738 79.8312C35.7966 79.3694 34.9884 80.2064 35.5657 80.6682Z" fill="black"/>
<path d="M62.9276 81.361C66.1314 83.2371 69.999 82.2557 71.904 79.0808C72.2792 78.4458 71.2979 77.8397 70.8938 78.5036C69.3063 81.159 66.1603 81.9094 63.5049 80.3797C62.8699 79.9756 62.2638 80.9858 62.9276 81.361Z" fill="black"/>
<defs>
<radialGradient id="paint0_radial_129_46" cx="0" cy="0" r="1" gradientUnits="userSpaceOnUse" gradientTransform="translate(53.5 111) rotate(90) scale(18 53.5)">
<stop offset="0.348958"/>
<stop offset="1" stop-color="#D9D9D9" stop-opacity="0"/>
</radialGradient>
</defs>
</svg>
