<svg width="95" height="101" viewBox="0 0 95 101" fill="none" xmlns="http://www.w3.org/2000/svg">
<circle cx="56" cy="63" r="37" fill="#FF5B5B" stroke="black" stroke-width="2"/>
<mask id="mask0_173_791" style="mask-type:alpha" maskUnits="userSpaceOnUse" x="18" y="25" width="76" height="76">
<circle cx="56" cy="63" r="37" fill="#FF5B5B" stroke="black" stroke-width="2"/>
</mask>
<g mask="url(#mask0_173_791)">
<path d="M100.948 75.8968C101.415 75.3886 101.706 74.725 101.687 74.0043C101.549 68.8416 100.6 63.6745 98.7669 58.8426C97.0715 54.3786 94.8001 49.4284 91.0546 46.3027C86.7483 42.7083 81.1628 42.7959 75.8381 42.9295C70.3621 43.0675 64.8862 43.6918 59.5132 44.7541C54.1534 45.8143 47.7224 46.9511 43.782 51.0755C43.0701 51.8203 42.8751 52.6767 43.0219 53.4608C42.5203 53.9865 42.1195 54.602 41.8522 55.2701C41.5938 55.476 41.3572 55.7388 41.1579 56.074C39.2326 59.296 37.9315 62.8882 37.3992 66.6053C36.8341 70.5392 37.3291 74.4337 37.2284 78.3851C37.213 79.0225 37.3729 79.546 37.6467 79.9622C37.9249 84.8116 40.8074 88.8989 44.7216 91.6412C49.0892 94.7012 54.6593 95.4897 59.8571 95.7525C70.1606 96.2738 81.441 95.9672 90.4456 90.3073C95.0126 87.4379 98.5632 83.4777 100.648 78.4946C100.867 77.9711 100.837 77.4082 100.644 76.8869C100.817 76.589 100.924 76.256 100.948 75.8968ZM62.0519 88.1038C62.0037 88.1081 61.9423 88.1147 61.8635 88.1213C61.4539 88.1388 61.053 88.1322 60.6434 88.1257C60.5974 88.1213 60.558 88.1169 60.5208 88.1125C59.9973 87.6591 59.43 87.3415 58.8254 87.1707C58.6831 86.7983 58.4991 86.4413 58.2669 86.1127C57.9077 85.6067 57.4433 85.2015 56.9132 84.9562C56.8497 84.7109 56.784 84.4677 56.7183 84.2224C57.0228 83.7734 57.2002 83.2389 57.1848 82.6694C57.1717 82.1657 57.1476 81.6619 57.1235 81.1581C57.1301 81.1471 57.1367 81.1362 57.1432 81.123C57.417 80.9894 57.6667 80.8076 57.8726 80.5667C57.9515 80.4747 58.0303 80.3893 58.1092 80.3082C58.2384 80.2951 58.3676 80.2797 58.4991 80.2513C58.6721 80.214 58.832 80.1637 58.9875 80.1045C61.1845 79.5701 63.8041 80.5798 66.2924 81.1559C66.3625 81.1866 66.4326 81.2172 66.5049 81.2413C66.7327 81.3618 66.9736 81.4341 67.2255 81.4669C67.4708 81.5326 67.7381 81.5721 68.0294 81.5721C68.1017 81.5721 68.1717 81.5655 68.2418 81.5611C68.2878 81.5677 68.3316 81.5743 68.3776 81.5786C68.5748 81.5786 68.7653 81.5524 68.9515 81.5151C70.3775 81.5085 71.6763 81.0595 72.719 79.7059C72.9993 79.7168 73.2841 79.6862 73.5644 79.6029C73.7484 79.5438 73.9346 79.4956 74.123 79.4562C74.1777 79.4518 74.2522 79.4474 74.3574 79.4408C74.4428 79.4408 75.2642 79.5044 74.8568 79.4386C75.6431 79.5657 75.8271 79.6927 76.4776 80.1418C76.6375 80.2513 76.8084 80.3389 76.9836 80.4024C78.3723 81.9313 78.576 83.8588 77.2224 85.8323C77.0844 86.0317 76.9902 86.2485 76.9245 86.4719C75.6475 86.8859 74.3683 87.1597 73.0869 87.175C72.605 86.9845 72.1188 86.8071 71.6281 86.6559C71.2952 86.4719 70.9272 86.369 70.5395 86.3777C69.7291 86.2135 68.8968 86.1456 68.0316 86.2398C66.0186 86.4588 64.378 87.5649 62.4593 88.0118C62.3256 88.0512 62.1898 88.0797 62.0519 88.1038ZM58.6261 87.3787C58.6152 87.3809 58.6042 87.3809 58.5911 87.3831C58.5867 87.3809 58.5823 87.3787 58.5801 87.3766C58.5845 87.3678 58.5867 87.359 58.5911 87.3525C58.602 87.3525 58.6086 87.3525 58.6173 87.3547C58.6217 87.3612 58.6239 87.37 58.6261 87.3787ZM78.9133 67.5274C78.9571 67.4486 78.9944 67.4026 79.0141 67.4442C79.0272 67.4705 78.9834 67.4989 78.9133 67.5274ZM78.7359 67.5844C78.4993 67.6479 78.1949 67.7026 78.1795 67.7048C77.6363 67.8078 76.9836 67.8713 76.3835 67.8932C76.2542 67.477 76.0286 67.0937 75.6913 66.7871C73.882 65.1377 73.2906 62.9386 74.25 60.4087C74.2785 60.332 74.3004 60.2554 74.3201 60.1765C74.5238 59.9487 74.7363 59.7253 74.9707 59.5347C75.124 59.4099 75.1744 59.3661 75.4219 59.3288C75.3102 59.3486 75.63 59.3288 75.6979 59.3267C75.9541 59.3223 76.2148 59.2982 76.4711 59.285C76.839 59.2653 77.2092 59.2456 77.5772 59.2259C78.0766 60.3342 78.6242 61.4163 79.2244 62.4764C79.1258 62.7677 79.071 63.07 79.0688 63.3854C79.0688 63.4708 79.0688 63.5563 79.0688 63.6417C79.0535 64.0338 79.1367 64.3996 79.3142 64.7391C79.3645 64.8946 79.4346 65.0391 79.5157 65.175C79.5551 65.5254 79.577 65.8803 79.5748 66.2285C79.1565 66.5768 78.8454 67.0368 78.7359 67.5844ZM61.3531 57.8241C61.3356 57.8482 61.3181 57.8766 61.3005 57.9007C61.2524 57.8525 61.202 57.8043 61.1516 57.7583C61.2085 57.7408 61.2633 57.7233 61.3203 57.7036C61.3312 57.7452 61.3422 57.7846 61.3531 57.8241ZM57.6492 67.7355C57.6229 67.7355 57.2243 67.9129 57.1564 67.9326C57.1367 67.9392 56.6526 68.0509 56.6285 68.0706C56.3963 68.0925 56.1597 68.0903 55.9254 68.0816C55.599 67.7114 55.1741 67.4267 54.7097 67.258C54.7053 67.177 54.6988 67.0959 54.6944 67.0149C54.6221 65.5298 54.782 64.0776 54.9156 62.6232C55.1982 62.6013 55.4566 62.5443 55.691 62.4567C55.7151 62.4545 55.737 62.4501 55.7611 62.4479C55.9122 62.4063 56.0568 62.3472 56.1948 62.2837C56.2539 62.2858 56.3131 62.2924 56.3744 62.2924C56.7555 62.2924 57.0972 62.2267 57.3995 62.1172C57.4302 62.1172 57.4586 62.1216 57.4893 62.1216C57.509 62.1216 57.5265 62.1194 57.5441 62.1194C57.9427 62.5575 58.1617 63.0963 58.3238 63.7753C58.5889 64.8902 58.429 66.1781 58.1223 67.4551C57.969 67.5537 57.8113 67.6479 57.6492 67.7355ZM82.8582 48.7844C83.6862 48.8895 84.4966 49.0648 85.272 49.367C84.4703 49.159 83.6664 48.9662 82.8582 48.7844Z" fill="#DDC025"/>
<path d="M57.1345 82.6432C56.9921 84.6846 58.3217 86.4676 60.3127 86.9298C60.9983 87.0897 61.2918 86.0339 60.604 85.874C59.062 85.5148 58.1202 84.2159 58.2297 82.6432C58.2779 81.9401 57.1827 81.9423 57.1345 82.6432Z" fill="#F15C5E"/>
<path d="M58.3611 85.8235C59.6074 87.1728 61.3772 87.7335 63.1777 87.4378C63.8721 87.3239 63.5764 86.2682 62.8864 86.3821C61.467 86.6143 60.1003 86.0951 59.1343 85.0503C58.6568 84.5312 57.8836 85.3066 58.3611 85.8235Z" fill="#F15C5E"/>
<path d="M58.7707 86.5332C60.2361 87.7839 62.2227 88.003 63.9093 87.0523C64.435 86.7566 64.078 85.8214 63.4866 86.0513C63.077 86.2112 62.7878 86.3821 62.4878 86.7041C62.1723 87.0414 62.3848 87.6481 62.8754 87.6394C63.572 87.6262 64.0517 87.3546 64.6453 87.0085C65.4557 86.5354 66.3056 86.1696 67.219 85.9506C69.1005 85.4994 70.8681 85.76 72.6839 86.3317C73.95 86.7304 75.4044 87.0764 76.6332 86.3646C77.6824 85.7556 78.1642 84.494 78.1007 83.3221C77.9474 80.5557 75.1262 78.8932 72.6774 80.2293C71.0762 81.1033 70.0314 82.1941 68.0469 82.0736C66.1785 81.9597 64.4744 81.134 62.7068 80.5995C61.3794 80.1987 59.4913 79.6795 58.337 80.766C57.1389 81.8918 57.4828 83.6266 57.9581 84.9978C58.1881 85.6593 59.246 85.3745 59.0138 84.7065C58.7159 83.8478 58.3261 82.7614 58.8298 81.8984C59.3796 80.9565 60.5975 81.2062 61.4758 81.4012C63.1164 81.7648 64.6387 82.5183 66.2727 82.9038C67.6505 83.228 69.1377 83.3353 70.487 82.8337C71.8253 82.3365 72.8942 80.9149 74.3618 80.8229C76.3835 80.6959 77.8006 83.2718 76.5937 84.9255C75.4504 86.4916 73.2031 85.2716 71.764 84.9102C70.3578 84.5575 68.8924 84.5246 67.4665 84.7831C66.7546 84.9123 66.0646 85.1204 65.3988 85.4008C64.6168 85.7294 63.7297 86.5288 62.8733 86.5464C63.0025 86.8574 63.1317 87.1706 63.261 87.4816C63.4318 87.359 63.6049 87.2341 63.7757 87.1115C63.6355 86.7785 63.4953 86.4434 63.353 86.1105C62.1176 86.807 60.6281 86.6887 59.5417 85.7622C59.0116 85.3044 58.2341 86.0754 58.7707 86.5332Z" fill="#F15C5E"/>
<path d="M58.4005 82.0517C57.6317 84.4239 59.4103 86.7544 61.8963 86.6624C61.5174 86.0031 61.1407 85.3438 60.7617 84.6845C60.7223 84.7546 60.6807 84.8247 60.6413 84.897C60.2645 85.5519 60.5602 86.7062 61.4276 86.8267C62.3651 86.9581 63.1711 86.9516 64.0801 86.6646C63.653 85.933 63.2281 85.1993 62.801 84.4677C62.3563 84.8751 61.9117 85.2825 61.467 85.6899C60.5361 86.5442 61.3597 87.8058 62.3957 87.9329C63.9553 88.1256 64.2094 86.0404 63.1208 85.3175C62.7309 85.0569 62.1877 85.0985 61.7934 85.3175C61.9511 85.2978 62.1088 85.2803 62.2665 85.2606C62.2424 85.1905 62.2205 85.1226 62.1964 85.0525C62.2358 84.8094 61.9489 84.3209 61.8723 84.0953C61.8219 83.9486 61.7518 83.4842 61.6379 83.39C61.5897 83.0899 61.4386 83.1732 61.1823 83.6441C60.742 83.804 60.65 84.0296 60.9063 84.3209C61.329 83.7668 61.7518 83.2126 62.1745 82.6563C61.4846 82.4788 60.8515 82.711 60.282 83.3528C60.2382 83.0155 60.1944 82.6782 60.1506 82.3408C60.1375 82.4109 60.1265 82.481 60.1134 82.5533C60.42 82.2466 60.7245 81.9422 61.0311 81.6355C61.3487 81.929 61.6642 82.2204 61.9818 82.5139C61.6751 82.8205 61.3707 83.125 61.064 83.4316C60.7442 83.3375 60.8055 83.355 61.2458 83.482C61.5108 83.5631 61.7693 83.6594 62.0234 83.7711C62.6433 84.2202 62.8535 83.8259 62.6542 82.5884C62.4505 82.6256 62.5009 82.6519 62.8032 82.6672C63.0047 82.93 63.2062 83.1907 63.4077 83.4535C63.3814 83.39 63.3551 83.3265 63.3288 83.263C63.285 83.6003 63.2412 83.9376 63.1974 84.2749C62.744 84.4567 62.6717 84.5531 62.9828 84.5663C63.5128 84.7086 63.7823 84.3209 63.7888 83.3988C64.0977 83.528 64.4087 83.6551 64.7175 83.7843C64.1831 84.6604 64.2335 85.0963 64.8665 85.0898C65.0833 85.1314 65.3024 85.1489 65.5236 85.1445C65.4075 84.2837 65.2914 83.4229 65.1731 82.5621C65.2301 82.63 65.2892 82.6979 65.3462 82.7658C64.9672 83.4251 64.5905 84.0844 64.2116 84.7437C63.8567 84.7437 63.1689 83.4645 63.4515 84.5487C63.4997 84.7371 63.5742 84.8992 63.6771 85.0635C63.9443 85.4884 64.3649 85.7863 64.8468 85.9199C65.8784 86.209 66.7458 85.6592 67.4774 84.9868C68.7259 83.8412 66.8641 81.986 65.6178 83.1272C65.2914 83.2936 65.3243 83.4338 65.7185 83.5477C66.0471 83.8851 66.1391 83.8412 65.9945 83.4141C65.9726 83.2082 65.7908 82.9147 65.6682 82.757C65.3067 82.2948 64.7854 82.113 64.2138 82.113C63.2741 82.113 62.5009 83.252 63.0791 84.0909C63.7122 85.0087 64.7745 85.5278 65.8741 85.0941C67.2014 84.5706 67.0941 82.5555 65.5236 82.5117C64.746 82.4898 64.0648 82.2729 63.3223 82.6343C62.6805 82.9476 62.2359 83.6266 62.2534 84.3494C62.2906 85.8498 64.0626 86.5683 65.1403 85.5432C66.3932 84.3538 65.3549 82.6059 63.9991 82.1196C62.7177 81.6596 60.3762 82.1043 60.7924 83.9573C61.1012 85.3285 62.8513 85.5213 63.9005 84.8948C65.5214 83.9267 64.6978 82.159 63.3464 81.4975C62.1811 80.9259 60.0783 80.1023 59.4453 81.8108C58.9284 83.206 60.4113 84.4589 61.7277 84.1654C62.1373 84.0734 62.571 83.6704 62.6454 83.2477C62.9784 81.3442 60.5843 80.1023 59.4015 81.7976C58.0807 83.6901 60.5887 85.1708 62.1745 85.2825C62.9587 85.3373 63.756 84.3866 63.4427 83.6178C62.9915 82.5095 62.3191 81.4209 60.9742 81.4077C59.7914 81.3968 58.9459 82.3671 59.0072 83.5105C59.062 84.529 59.5899 85.9615 60.1397 86.8245C60.8033 87.865 62.0584 88.1782 63.1229 87.5846C62.6805 87.5846 62.238 87.5846 61.7956 87.5846C61.8175 87.5999 61.8394 87.6153 61.8613 87.6284C61.6444 87.2495 61.4276 86.8727 61.2108 86.4938C61.2151 86.5201 61.2173 86.5464 61.2217 86.5726C61.3509 86.2638 61.478 85.9528 61.6072 85.6439C61.5875 85.6614 61.5678 85.679 61.5481 85.6965C61.8569 85.5673 62.168 85.4402 62.4768 85.311C62.4505 85.3088 62.4242 85.3044 62.3979 85.3022C62.7068 86.0491 63.0178 86.7982 63.3266 87.5452C63.7713 87.1378 64.2159 86.7303 64.6606 86.3229C65.6222 85.4402 64.6212 83.7383 63.3814 84.126C62.9609 84.2574 62.571 84.3516 62.1263 84.2881C62.3892 84.9321 62.6498 85.576 62.9127 86.2178C62.9521 86.1477 62.9937 86.0776 63.0331 86.0053C63.5128 85.1664 62.9105 83.9902 61.8985 84.0274C61.0618 84.0581 60.6829 83.5324 60.937 82.7439C61.4583 81.1383 58.9218 80.4462 58.4005 82.0517Z" fill="#F15C5E"/>
<path d="M67.9199 85.206C69.4663 85.0198 71.0171 84.895 72.5744 84.8337C74.1186 84.7723 74.1274 82.3629 72.5744 82.4242C71.0171 82.4856 69.4663 82.6104 67.9199 82.7966C67.2693 82.8755 66.7217 83.2938 66.7152 84.0013C66.7086 84.5927 67.2737 85.2849 67.9199 85.206Z" fill="#F15C5E"/>
<path d="M71.1551 84.5926C71.718 84.4721 72.2262 84.2377 72.708 83.9267C73.1352 83.6529 73.8602 82.9169 74.4034 82.9717C74.6662 82.998 74.7385 83.1557 74.8524 83.366C74.9532 83.5521 75.1174 83.401 74.7845 83.4908C74.1186 83.6682 73.3279 83.4054 72.7212 83.1557C72.8986 83.8259 73.076 84.4984 73.2534 85.1686C73.6652 84.8226 74.1603 84.6013 74.6969 84.5466C74.3092 84.0384 73.9215 83.5302 73.536 83.0221C73.5141 83.0944 73.49 83.1666 73.4681 83.2411C73.6521 83.0002 73.8383 82.7614 74.0223 82.5205C73.9565 82.5599 73.893 82.6015 73.8273 82.641C74.3136 83.2718 74.7998 83.9026 75.2883 84.5334C75.3343 84.4809 75.3781 84.4283 75.4241 84.3779C76.4317 83.2083 74.7341 81.4976 73.72 82.6738C73.674 82.7264 73.6302 82.7789 73.5842 82.8293C72.7321 83.8172 73.8164 85.4775 75.0452 84.7218C75.4986 84.4414 75.7045 84.1654 75.8622 83.6639C76.079 82.9739 75.4723 82.0583 74.7013 82.1393C73.4747 82.2664 72.4978 82.6716 71.5537 83.4667C70.7827 84.1173 71.3347 85.1708 72.086 85.4797C73.2403 85.9528 74.7232 86.1521 75.9104 85.668C77.2027 85.1402 77.5619 83.6836 77.0844 82.4482C76.6244 81.2588 75.5095 80.5097 74.2347 80.5842C72.7518 80.6718 71.8866 81.9773 70.5199 82.2708C68.9975 82.5928 69.6393 84.9167 71.1551 84.5926Z" fill="#F15C5E"/>
<path d="M65.0264 86.8794C65.3703 86.0251 66.9014 85.7601 67.6899 85.69C68.6778 85.6046 69.6525 85.7776 70.5549 86.185C71.5756 86.645 72.4671 85.1358 71.4398 84.6715C68.9888 83.5653 64.5489 83.4054 63.3398 86.4128C62.9149 87.4598 64.6102 87.9132 65.0264 86.8794Z" fill="#C25257"/>
<path d="M70.7192 85.747C70.901 86.0033 71.0806 86.2617 71.2624 86.518C71.4595 86.7984 71.845 86.9583 72.1604 86.7546C72.4386 86.575 72.6073 86.1566 72.397 85.8565C72.2152 85.6002 72.0356 85.3418 71.8538 85.0855C71.6566 84.8051 71.2711 84.6452 70.9557 84.849C70.6775 85.0286 70.5089 85.4469 70.7192 85.747Z" fill="#C25257"/>
<path d="M71.0412 85.9571C71.0543 85.9659 71.1813 86.0557 71.1156 86.0053C71.0587 85.9615 71.1507 86.036 71.1616 86.0448C71.2339 86.1083 71.3018 86.174 71.3675 86.2463C71.3938 86.2747 71.4179 86.3054 71.442 86.3339C71.4902 86.3886 71.396 86.2594 71.4595 86.3602C71.5121 86.4412 71.5625 86.5201 71.6084 86.6055C71.7705 86.9078 72.2174 87.0282 72.5065 86.8421C72.8154 86.6427 72.9161 86.2682 72.7431 85.944C72.4978 85.4862 72.1363 85.1138 71.707 84.8247C71.4201 84.632 70.9667 84.759 70.809 85.0613C70.6294 85.3898 70.7345 85.7513 71.0412 85.9571Z" fill="#C25257"/>
<path d="M88.1917 91.2031C90.6603 90.1473 93.0763 88.9251 94.465 86.5135C95.3805 84.9233 92.9208 83.4864 92.0052 85.0766C90.8815 87.026 88.7306 87.9 86.7527 88.7433C86.0408 89.0477 85.8962 90.0838 86.2423 90.6905C86.6629 91.4287 87.4886 91.5031 88.1917 91.2031Z" fill="white"/>
<path d="M52.5872 45.8274C48.914 47.4286 45.6065 49.7876 42.862 52.7074C41.125 54.556 43.909 57.3488 45.6503 55.4957C48.1868 52.795 51.181 50.7141 54.5761 49.2334C55.553 48.8085 55.7764 47.3782 55.2836 46.5371C54.6944 45.5273 53.5685 45.4003 52.5872 45.8274Z" fill="white"/>
<path d="M82.5713 49.3955C83.3029 49.5028 84.0147 49.6758 84.7134 49.9168C85.3815 50.1468 85.6684 49.0888 85.0048 48.861C84.306 48.6201 83.5942 48.4471 82.8626 48.3397C82.5669 48.2959 82.2778 48.412 82.188 48.723C82.1157 48.9793 82.2799 49.3539 82.5713 49.3955Z" fill="#DDC025"/>
<path d="M86.5314 49.3495C85.5589 48.8347 84.536 48.4449 83.4627 48.1973C82.7772 48.0374 82.4836 49.0932 83.1714 49.2531C84.1549 49.4809 85.0858 49.8226 85.9795 50.2957C86.6015 50.6243 87.1557 49.6802 86.5314 49.3495Z" fill="#DDC025"/>
<path d="M60.6719 57.9468C60.9676 58.2031 61.2633 58.4594 61.559 58.7156C61.7825 58.9084 62.1132 58.9347 62.3344 58.7156C62.5316 58.5185 62.5578 58.1352 62.3344 57.9402C62.0387 57.684 61.743 57.4277 61.4473 57.1714C61.2239 56.9787 60.8932 56.9524 60.6719 57.1714C60.4748 57.3707 60.4485 57.7519 60.6719 57.9468Z" fill="#DDC025"/>
<path d="M54.5345 62.0998C54.5279 62.1217 54.5214 62.1458 54.5126 62.1677C54.4907 62.2224 54.4973 62.2115 54.5279 62.137C54.5301 62.1392 54.4797 62.2268 54.4776 62.2312C54.46 62.2597 54.4337 62.2904 54.4184 62.321C54.4688 62.2575 54.4732 62.2487 54.4359 62.2925C54.4206 62.3101 54.4031 62.3276 54.3856 62.3429C54.1819 62.5444 54.1687 62.919 54.3856 63.1183C54.6046 63.3198 54.9419 63.333 55.1609 63.1183C55.3647 62.9168 55.5092 62.6671 55.5903 62.3911C55.6691 62.1151 55.4939 61.7822 55.2069 61.7165C54.9156 61.6508 54.6199 61.8041 54.5345 62.0998Z" fill="#DDC025"/>
<path d="M73.8054 59.3245C73.341 60.9344 73.0607 62.5728 72.9468 64.2441C72.8986 64.9472 73.996 64.945 74.042 64.2441C74.1471 62.6692 74.4231 61.1316 74.8612 59.6136C75.0583 58.9368 74.0003 58.6477 73.8054 59.3245Z" fill="#DDC025"/>
<path d="M79.2967 64.8464C79.3448 65.624 79.2331 66.3534 78.955 67.0806C78.7031 67.7399 79.7632 68.0246 80.0107 67.3719C80.3196 66.5637 80.4466 65.7094 80.3918 64.8464C80.348 64.1455 79.2528 64.1411 79.2967 64.8464Z" fill="#DDC025"/>
<path d="M57.0425 62.4018C57.2352 62.5114 57.4258 62.6187 57.6185 62.7282C57.8682 62.8684 58.2275 62.7961 58.3677 62.5311C58.5056 62.2726 58.4377 61.9331 58.1705 61.782C57.9778 61.6724 57.7872 61.5651 57.5944 61.4556C57.3447 61.3154 56.9855 61.3877 56.8453 61.6527C56.7073 61.9112 56.7752 62.2507 57.0425 62.4018Z" fill="#DDC025"/>
<path d="M55.9407 62.7634C55.1084 63.817 54.6835 65.0918 54.8762 66.441C55.0405 67.5844 55.7129 68.6161 57.0096 68.1057C59.246 67.223 58.8846 62.7262 56.3788 62.5071C55.6779 62.4458 55.6801 63.541 56.3788 63.6023C57.8047 63.7272 57.5835 67.2996 56.4007 67.0171C55.8509 66.8857 55.8882 65.9745 55.9364 65.4554C55.9999 64.7544 56.2824 64.0886 56.7161 63.5388C57.1476 62.989 56.3766 62.2092 55.9407 62.7634Z" fill="white"/>
<path d="M56.186 63.4074C56.5387 63.9024 56.7599 64.439 56.773 65.0523C56.7796 65.3108 56.7533 65.5671 56.692 65.8168C56.6482 65.9942 56.5869 66.165 56.508 66.3293C56.3503 66.5089 56.335 66.5681 56.4642 66.5089C56.5934 66.5615 56.7227 66.6163 56.8519 66.6688C56.4992 66.3906 56.5233 65.6087 56.5672 65.2122C56.6263 64.6646 56.8585 64.1893 57.1826 63.7534C56.8497 63.7096 56.5146 63.6658 56.1816 63.622C56.4686 64.4784 56.3722 65.2955 55.8903 66.0577C56.2233 66.1015 56.5584 66.1453 56.8913 66.1891C56.7928 65.9285 56.4686 64.842 56.8804 64.6624C56.7402 64.68 56.6 64.6997 56.4576 64.7172C56.8103 64.8048 56.3416 65.4313 56.7928 65.2955C56.933 65.313 57.0731 65.3327 57.2155 65.3502C57.0271 65.2341 57.1761 64.4697 57.2046 64.3426C56.8519 64.3426 56.5014 64.3426 56.1488 64.3426C56.1729 64.5332 56.2736 64.6602 56.4489 64.726C56.5891 64.7435 56.7292 64.7632 56.8716 64.7807C56.922 64.772 56.9746 64.7654 57.0249 64.7566C56.692 64.8004 56.3569 64.8442 56.0239 64.8881C56.1554 65.0195 56.1992 65.175 56.1532 65.3546C56.5124 65.3064 56.8694 65.2582 57.2286 65.21C57.1936 65.0808 57.1607 64.9494 57.1257 64.8202C56.9439 64.1258 55.956 64.4303 56.0699 65.1115C56.0831 65.1837 56.094 65.2582 56.1072 65.3305C56.2101 65.9482 57.1892 65.7905 57.1826 65.1859C57.1826 65.1356 57.1805 65.0852 57.1805 65.0348C57.1717 64.3295 56.0765 64.3295 56.0853 65.0348C56.0853 65.0852 56.0875 65.1356 56.0875 65.1859C56.4467 65.1378 56.8037 65.0896 57.1629 65.0414C57.1498 64.9691 57.1388 64.8946 57.1257 64.8223C56.773 64.9187 56.4226 65.0173 56.0699 65.1137C56.105 65.2429 56.1378 65.3743 56.1729 65.5035C56.335 66.1256 57.2045 65.9548 57.2484 65.359C57.2768 64.98 57.187 64.6537 56.9702 64.3405C56.6832 63.9287 56.151 64.0294 55.9692 64.4719C55.7282 65.0589 55.9582 65.9022 56.7424 65.7883C57.5703 65.6678 57.4345 64.6121 57.2067 64.0579C57.0206 63.6067 56.2824 63.4731 56.151 64.0579C56.002 64.726 55.886 66.3403 56.9417 66.3753C57.7981 66.4038 57.8135 65.3743 57.6667 64.796C57.5046 64.1565 56.9505 63.2956 56.1882 63.7819C55.3844 64.2966 55.5618 65.7489 55.8378 66.4826C56.002 66.9185 56.5737 67.0324 56.8388 66.6141C57.4696 65.6153 57.6163 64.4543 57.2396 63.3329C57.0797 62.8576 56.519 62.8247 56.2386 63.2015C55.6581 63.9856 55.3822 64.9494 55.4807 65.9219C55.5443 66.5462 55.8049 67.7837 56.6964 67.5888C57.4784 67.4179 57.7631 66.2505 57.8398 65.5846C57.9493 64.6143 57.6974 63.6505 57.1323 62.8554C56.7249 62.2859 55.7742 62.8335 56.186 63.4074Z" fill="white"/>
<path d="M56.0283 62.8159C56.2014 63.7184 56.2583 64.6361 56.1488 65.5495C56.07 66.2088 55.6932 66.947 55.7261 67.5953C55.7655 68.3926 56.6373 68.5679 57.0841 67.983C57.5112 67.4223 56.5606 66.8769 56.1379 67.431C56.1138 67.4617 56.0897 67.4946 56.0656 67.5252C56.2233 67.4354 56.381 67.3434 56.5387 67.2536C56.8059 67.5778 56.9439 67.5318 56.9483 67.1134C57.014 66.8813 57.0688 66.6469 57.1148 66.4103C57.1914 66.0073 57.2484 65.5977 57.2768 65.1881C57.3404 64.2901 57.2527 63.4051 57.0841 62.5246C56.9505 61.8346 55.8947 62.126 56.0283 62.8159Z" fill="white"/>
<path d="M57.4696 66.6645C57.3995 66.7105 57.3316 66.7587 57.2615 66.8047C57.5287 66.9142 57.7981 67.0237 58.0654 67.1311C57.6908 65.8388 57.5221 64.5355 57.5572 63.1906C57.5747 62.4853 56.4795 62.4853 56.462 63.1906C56.4248 64.6297 56.6088 66.0403 57.0096 67.4224C57.1016 67.7422 57.5156 67.9525 57.8135 67.7488C57.8836 67.7028 57.9515 67.6546 58.0216 67.6086C58.602 67.2165 58.0544 66.2659 57.4696 66.6645Z" fill="white"/>
<path d="M55.6998 62.9583C55.5377 64.5594 55.3778 66.1606 55.2157 67.7618C55.1456 68.4627 56.2408 68.4583 56.3109 67.7618C56.473 66.1606 56.6329 64.5594 56.795 62.9583C56.8672 62.2574 55.7699 62.2639 55.6998 62.9583Z" fill="white"/>
<path d="M75.3211 59.8239C74.2939 61.7602 73.6521 64.3667 74.8918 66.3621C75.7023 67.6676 77.8751 68.8526 78.8016 67.0083C79.277 66.0599 79.2331 64.8004 79.1762 63.7753C79.1149 62.6516 78.9243 61.4995 78.3 60.5379C77.9058 59.9312 77.1961 59.158 76.4076 59.1514C75.5358 59.1427 75.1284 59.9619 74.9137 60.6716C74.71 61.3484 75.768 61.6375 75.9695 60.9629C76.0374 60.7351 76.3594 60.3211 76.6332 60.3605C76.8653 60.3934 77.2311 60.9125 77.3538 61.0921C77.7196 61.6309 77.8904 62.2596 77.989 62.8926C78.0788 63.4577 78.1029 64.0316 78.0985 64.6033C78.0941 65.037 78.1861 66.2723 77.7963 66.5812C77.4436 66.8594 76.6507 66.6841 76.3375 66.4059C76.1469 66.2351 75.9695 66.027 75.8337 65.8102C75.5117 65.2954 75.3496 64.6887 75.3168 64.0863C75.2423 62.7918 75.665 61.5061 76.263 60.378C76.5981 59.7538 75.6541 59.1996 75.3211 59.8239Z" fill="white"/>
<path d="M76.1031 59.8174C75.3781 60.7899 74.975 61.8917 74.8305 63.0898C74.7451 63.7885 75.8424 63.7819 75.9257 63.0898C76.0483 62.0866 76.4492 61.1776 77.0493 60.3715C77.4699 59.8042 76.5214 59.2588 76.1031 59.8174Z" fill="white"/>
<path d="M75.0079 60.3539C74.721 62.2923 74.8327 64.187 75.3803 66.0707C75.5774 66.7454 76.6353 66.4584 76.436 65.7794C75.9454 64.095 75.8052 62.3822 76.0637 60.6452C76.1644 59.9552 75.1108 59.6573 75.0079 60.3539Z" fill="white"/>
<path d="M74.8568 64.9495C74.9882 65.7139 75.2685 66.4411 75.676 67.1026C76.0461 67.7006 76.9924 67.1508 76.6222 66.5506C76.2586 65.9614 76.0308 65.3415 75.9125 64.6603C75.7942 63.966 74.7385 64.2595 74.8568 64.9495Z" fill="white"/>
<path d="M76.4842 66.084C76.1162 65.3305 75.9082 64.5464 75.8994 63.7031C75.895 63.1905 76.0177 61.3441 76.6441 61.3243C77.4765 61.2981 77.6364 63.1686 77.6648 63.679C77.6867 64.0798 77.6889 64.4829 77.6824 64.8837C77.6824 65.0918 77.6758 65.2977 77.6648 65.5036C77.7941 66.141 77.5093 66.3644 76.815 66.1782C76.6419 65.4948 75.5862 65.7839 75.7592 66.4695C76.079 67.7268 77.6999 68.1539 78.4271 66.9667C78.9155 66.1694 78.7929 64.9516 78.771 64.0689C78.7469 63.1226 78.6658 62.1545 78.1927 61.3134C77.8795 60.7548 77.3494 60.1547 76.6857 60.0517C75.9213 59.9356 75.5402 60.5949 75.2905 61.2017C74.5567 62.9803 74.7013 64.9253 75.538 66.636C75.849 67.2712 76.7931 66.717 76.4842 66.084Z" fill="white"/>
<path d="M77.8532 65.2955C77.1961 65.3108 76.8413 64.2222 76.7471 63.7293C76.7098 63.53 76.5981 62.3165 76.8697 62.264C77.2136 62.1961 77.3341 63.2891 77.345 63.6001C77.3647 64.2003 77.3144 64.853 76.7033 65.1224C76.0593 65.405 76.6156 66.349 77.2552 66.0687C78.3855 65.5714 78.5344 64.2025 78.403 63.1117C78.3022 62.264 77.6495 60.6431 76.493 61.068C75.4942 61.436 75.5183 63.1883 75.6891 64.0207C75.906 65.0742 76.631 66.4169 77.851 66.3906C78.5585 66.3731 78.5607 65.2779 77.8532 65.2955Z" fill="white"/>
<path d="M77.7984 66.224C77.2048 65.5231 76.769 64.7105 76.574 63.8102C76.39 62.9648 76.1513 61.2497 77.3275 61.0263C78.0197 60.8949 77.7262 59.8391 77.0362 59.9705C73.847 60.5795 75.7658 65.5165 77.0252 66.9994C77.4808 67.5361 78.2518 66.7585 77.7984 66.224Z" fill="white"/>
<path d="M76.0264 59.5764C75.8074 60.5489 76.0155 61.4754 76.1776 62.4436C76.3835 63.6614 76.5893 64.8814 76.7931 66.0993C76.9091 66.7936 77.9649 66.4979 77.8488 65.808C77.6889 64.8595 77.529 63.9133 77.3691 62.9649C77.2005 61.9661 76.8544 60.8731 77.08 59.8677C77.2355 59.1821 76.1797 58.8886 76.0264 59.5764Z" fill="white"/>
<path d="M76.1403 61.9726C76.0702 62.8093 76.1228 63.6307 76.2718 64.4565C76.3813 65.0676 77.3648 64.9208 77.3472 64.3119C77.345 64.2681 77.345 64.2243 77.3429 64.1805C77.3231 63.4774 76.2258 63.4752 76.2477 64.1805C76.2499 64.2243 76.2499 64.2681 76.252 64.3119C76.6113 64.2637 76.9683 64.2155 77.3275 64.1673C77.1961 63.4401 77.1742 62.7107 77.2355 61.9748C77.2947 61.2717 76.1995 61.2739 76.1403 61.9726Z" fill="white"/>
<path d="M75.7001 62.6494C75.8205 63.013 76.4732 64.4192 76.3725 64.6952C76.5477 64.5616 76.7251 64.428 76.9004 64.2922C77.0537 64.4236 77.0033 64.3382 76.7514 64.0381C76.8412 63.8804 76.9332 63.7227 77.023 63.565C76.8566 63.4774 76.6879 63.3919 76.5214 63.3043C76.3944 63.4314 76.2674 63.5584 76.1381 63.6876C76.4097 63.6416 76.6835 63.6066 76.9573 63.5847C77.5597 63.4861 77.5334 63.5321 76.8785 63.7227C76.7208 63.8125 76.5631 63.9045 76.4054 63.9943C76.677 64.0052 76.9442 64.049 77.2048 64.1257C77.5947 64.2681 77.6626 64.2571 77.4085 64.095C77.4085 63.9111 77.4085 63.7271 77.4085 63.5431C77.3275 63.4511 77.2443 63.3591 77.1632 63.2671C77.08 63.473 76.9946 63.6789 76.9113 63.8848C76.9617 63.8585 77.0099 63.8322 77.0603 63.8059C76.8763 63.8059 76.6923 63.8059 76.5083 63.8059C76.4974 63.7972 76.4864 63.7884 76.4754 63.7796C76.8347 63.7314 77.1917 63.6832 77.5509 63.6351C77.4326 63.0743 77.7765 62.3406 77.7984 61.7513C77.8181 61.2081 77.7371 60.6759 77.6166 60.1458C77.483 59.5566 76.4689 59.6705 76.5412 60.2904C76.7514 62.0799 77.0406 63.8541 77.0143 65.6612C77.0033 66.3665 78.0985 66.3665 78.1095 65.6612C78.1379 63.8541 77.8466 62.0777 77.6363 60.2904C77.2771 60.3385 76.9201 60.3867 76.5609 60.4349C76.7405 61.2235 76.7142 61.909 76.5565 62.6932C76.4667 63.1378 76.3988 63.4686 76.4952 63.9242C76.6222 64.5287 77.5903 64.3929 77.5706 63.7796C77.5487 63.0765 77.0493 62.5727 76.3593 62.9385C76.125 63.0634 76.0724 63.3196 76.1075 63.5562C76.2389 64.4674 77.8313 64.8376 78.3548 64.095C78.4599 63.9439 78.4534 63.6942 78.3548 63.5431C78.024 63.0393 76.7383 62.6779 76.1973 62.9473C75.5555 63.2649 75.8074 64.0184 76.2936 64.336C76.8588 64.704 77.8926 64.8376 78.2847 64.1805C78.6877 63.5036 78.0854 62.6801 77.3866 62.5333C75.5664 62.1544 75.3562 65.107 77.115 64.9121C77.8444 64.831 78.311 64.0885 78.0416 63.3985C77.7108 62.5508 76.6134 62.4128 75.849 62.6341C75.6716 62.6844 75.5073 62.8312 75.4657 63.0174C75.2773 63.8848 76.2367 64.8135 77.1413 64.6908C78.0197 64.5725 77.9671 63.6701 77.5203 63.1094C76.9902 62.4435 75.9892 62.4917 75.6541 63.3372C75.3496 64.1082 75.9958 65.464 76.9026 65.3895C77.1632 65.3676 77.3428 65.2296 77.4304 64.9865C77.6955 64.2615 76.9858 63.0437 76.758 62.3581C76.5346 61.6922 75.4766 61.9791 75.7001 62.6494Z" fill="white"/>
<path d="M77.2158 61.0155C77.4786 61.7427 77.6539 62.4634 77.6845 63.2409C77.7064 63.8148 77.7743 65.2539 77.1961 65.5846C76.585 65.9351 77.1369 66.8813 77.7481 66.5309C78.5191 66.0884 78.6373 65.1816 78.7315 64.3602C78.8739 63.1183 78.6943 61.8939 78.2716 60.722C78.035 60.0671 76.9749 60.3497 77.2158 61.0155Z" fill="white"/>
<path d="M78.173 66.0643C78.2365 65.4094 78.046 64.7851 77.5619 64.3208C77.3122 64.082 76.9727 63.9615 76.7471 63.7009C76.5368 63.4578 76.4536 63.219 76.4776 62.8883C76.5039 62.5334 76.5171 62.4458 76.6945 62.8488C76.7909 63.0701 77.1238 64.3624 76.7164 64.4018C76.6792 64.4062 76.7777 63.6352 76.7821 63.6001C76.8391 63.2847 76.8916 63.368 76.8412 63.6242C76.6332 64.7107 76.4996 63.6856 76.1097 63.6067C75.9585 63.576 75.7263 63.7206 75.5993 63.8038C75.3387 63.9747 75.1831 64.2156 75.0342 64.4872C75.3671 64.531 75.7023 64.5748 76.0352 64.6187C75.9038 63.9375 75.9016 63.265 76.0965 62.5926C76.1491 62.4458 76.2017 62.2991 76.2542 62.1545C76.9223 62.0318 77.2837 62.1961 77.3385 62.6451C77.4699 62.9715 77.4677 63.4424 77.4918 63.7863C77.5093 64.0448 77.5203 64.3032 77.5181 64.5617C77.5137 64.9823 77.6276 65.4882 77.1939 65.5539C76.712 65.6262 76.8566 65.0765 76.8566 64.7348C76.8566 64.6274 76.8588 64.5201 76.8588 64.4128C76.8215 64.0426 76.9683 63.7666 77.2968 63.5892C77.3604 64.2857 78.4556 64.2923 78.392 63.5892C78.3285 62.8883 77.8532 62.3582 77.0997 62.4611C76.2915 62.5707 75.8906 63.3658 75.7943 64.093C75.6782 64.9626 75.7066 66.187 76.4842 66.7565C77.0888 67.1989 77.8729 67.0237 78.2694 66.3972C78.8542 65.4773 78.633 63.9484 78.495 62.9386C78.3723 62.045 78.0635 61.09 77.1216 60.7767C74.8984 60.0408 74.7232 63.5958 74.9772 64.9078C75.067 65.3743 75.7614 65.4335 75.9782 65.0392C76.2367 64.5705 76.8434 64.6647 77.137 64.2047C77.356 63.863 77.3604 63.3855 77.0756 63.0723C76.4448 62.3779 75.5007 62.9715 75.4328 63.7841C75.3671 64.5858 75.8994 65.578 76.8215 65.4379C77.9167 65.2714 78.0635 64.0667 77.862 63.1884C77.6889 62.4327 77.0055 61.7208 76.2389 62.3494C75.5445 62.9211 75.3825 64.5267 75.8162 65.2692C76.3659 66.2111 77.4611 65.6481 77.805 64.8618C78.2015 63.9528 77.989 62.3034 77.2728 61.5828C76.3769 60.6804 75.4723 61.8347 75.3803 62.7437C75.3255 63.2847 75.4394 63.852 75.768 64.2945C76.2608 64.9604 77.1698 65.0524 77.0734 66.0665C77.0121 66.7652 78.1073 66.7608 78.173 66.0643Z" fill="white"/>
<path d="M100.786 63.0196C99.7964 59.6158 98.3682 56.3653 96.732 53.2265C95.2623 50.4097 93.7663 46.9905 91.1685 45.0192C88.6189 43.0851 85.088 42.498 81.9799 42.187C78.1774 41.8081 74.3508 42.0797 70.5483 42.3447C63.434 42.8397 56.059 43.4158 49.6237 46.778C44.691 49.3539 40.9936 53.5682 38.7792 58.6498C36.626 63.5869 35.7586 69.0585 35.993 74.4249C36.2449 80.1571 37.5482 86.6647 42.0888 90.5876C44.4325 92.6115 47.3151 93.8842 50.2414 94.8173C53.6189 95.8971 57.117 96.5915 60.6413 96.9551C67.749 97.6845 75.0298 96.9594 81.8441 94.8041C87.5193 93.008 93.1705 90.1693 97.0847 85.5673C101.306 80.6039 102.596 74.0942 101.759 67.7355C101.551 66.1387 101.22 64.5682 100.786 63.0196C100.559 62.207 99.2904 62.5509 99.5182 63.3701C101.203 69.409 101.347 76.2079 98.1514 81.7933C95.2689 86.829 90.1653 90.1846 84.8953 92.3202C78.9243 94.7406 72.4364 95.9168 66.0033 95.9168C59.5636 95.9168 52.5873 94.8939 46.7477 92.0464C43.8981 90.6556 41.4952 88.6645 39.9839 85.8411C38.5952 83.2477 37.9205 80.271 37.5569 77.3688C36.9436 72.4711 37.2963 67.4135 38.7047 62.6779C40.1328 57.8766 42.7459 53.3491 46.7105 50.206C51.8798 46.1078 58.6393 44.7476 65.0483 44.108C68.9121 43.7225 72.8175 43.418 76.6989 43.337C80.5802 43.2537 84.593 43.5078 88.2553 44.9074C91.7511 46.2436 93.3654 49.7307 95.0345 52.8322C96.8525 56.2054 98.4515 59.6903 99.5226 63.3767C99.7547 64.1783 101.023 63.8344 100.786 63.0196Z" fill="black"/>
<path d="M57.9383 64.2594C58.0237 65.2101 58.153 66.2768 57.6667 67.1485C57.3469 67.7224 56.7709 68.1649 56.0918 67.9568C55.369 67.7355 55.334 67.1003 55.3143 66.452C55.2902 65.6284 55.1938 64.323 55.5202 63.5717C55.7721 62.9934 56.3591 62.6517 56.9811 62.8707C57.6711 63.1139 57.8222 63.7644 57.9537 64.3755C58.0697 64.9275 58.9152 64.6931 58.7991 64.1433C58.5034 62.7481 57.4258 61.493 55.8575 62.0581C54.1534 62.6736 54.3658 65.3261 54.4403 66.7564C54.5126 68.1561 55.5486 69.2951 57.0425 68.7957C58.9262 68.167 58.9612 65.8737 58.8145 64.2594C58.7641 63.7009 57.8879 63.6965 57.9383 64.2594Z" fill="black"/>
<path d="M73.8141 63.4839C73.801 64.6908 73.7375 65.4355 74.5216 66.4343C75.1108 67.1856 75.9432 68.1538 76.9267 68.3772C79.2463 68.9029 79.7698 65.8101 79.6405 64.1936C79.4916 62.3383 79.1981 59.1251 76.8675 58.733C74.2303 58.2905 73.79 61.6615 73.8141 63.4839C73.8229 64.0468 74.699 64.049 74.6903 63.4839C74.6793 62.6735 74.6662 61.8214 74.9225 61.0416C75.2379 60.0844 76.1666 59.1732 77.2267 59.7887C78.5037 60.5313 78.657 62.8815 78.7622 64.1936C78.8761 65.6107 78.311 68.7233 76.2805 67.0279C75.8337 66.6534 75.3737 66.1715 75.0473 65.6896C74.5523 64.9602 74.6793 64.3162 74.6881 63.4839C74.6969 62.921 73.8207 62.9188 73.8141 63.4839Z" fill="black"/>
<path d="M64.4131 87.8649C65.4404 87.2275 66.5005 86.5573 67.6899 86.2769C68.934 85.9834 70.1234 86.3054 71.3062 86.6865C73.0147 87.2341 74.8414 87.8168 76.5324 86.8858C79.4719 85.2694 79.4281 80.7857 76.298 79.3948C74.6334 78.6566 72.9818 79.1078 71.5887 80.1614C70.5615 80.9412 69.6831 81.5895 68.3251 81.5808C67.0875 81.572 65.9069 81.0879 64.7811 80.628C63.0069 79.9007 61.1297 79.1297 59.1934 79.6949C57.7062 80.1307 56.6811 81.3048 56.5781 82.8665C56.3218 86.7851 60.9589 89.948 64.4131 87.8649C64.895 87.5736 64.4547 86.8157 63.9706 87.1093C62.525 87.981 60.5011 87.7226 59.2066 86.6712C57.9318 85.6351 56.9308 83.5499 57.6952 81.9466C58.5035 80.2534 60.6653 80.1789 62.2446 80.617C63.8326 81.0573 65.2761 81.9181 66.8926 82.2751C68.2309 82.5708 69.6108 82.5292 70.809 81.8129C72.3094 80.9171 73.4374 79.4846 75.3934 80.0015C77.1348 80.4637 78.2409 82.3123 77.759 84.0734C77.2508 85.9286 75.354 86.761 73.571 86.4281C71.9239 86.1192 70.3906 85.2409 68.6777 85.2737C66.9386 85.3066 65.4053 86.22 63.9706 87.1093C63.4931 87.405 63.9334 88.1628 64.4131 87.8649Z" fill="black"/>
<path d="M53.6386 69.928C55.2705 70.8764 57.06 71.3561 58.9459 71.3473C59.5088 71.3451 59.511 70.469 58.9459 70.4712C57.2046 70.4778 55.5859 70.0462 54.0811 69.1701C53.5926 68.8875 53.1502 69.6432 53.6386 69.928Z" fill="black"/>
<path d="M74.3924 70.2435C76.7974 72.2279 79.7063 70.7013 81.5396 68.7321C81.9229 68.3203 81.3052 67.6983 80.9197 68.1122C79.4653 69.674 77.0165 71.2773 75.0123 69.6236C74.5808 69.2666 73.9565 69.8842 74.3924 70.2435Z" fill="black"/>
<path d="M42.7021 73.7919C37.397 73.1173 32.6176 69.4922 30.5412 64.5617C30.1644 63.6658 28.6794 64.0601 29.0627 64.9691C31.4348 70.6005 36.6414 74.5541 42.7021 75.3251C43.679 75.45 43.6703 73.9145 42.7021 73.7919Z" fill="black"/>
<path d="M98.5588 69.733C93.8758 71.8117 88.6583 72.5542 83.581 71.8489C82.6151 71.7153 82.1989 73.1916 83.1736 73.3274C88.7021 74.0962 94.2284 73.323 99.332 71.0582C100.232 70.6574 99.4525 69.3366 98.5588 69.733Z" fill="black"/>
<path d="M55.2617 95.9586C54.7601 100.883 53.1896 105.62 50.697 109.892C50.1275 110.868 51.641 111.751 52.2105 110.776C54.8675 106.225 56.4818 101.198 57.014 95.9586C57.1279 94.8393 55.3756 94.8459 55.2617 95.9586Z" fill="black"/>
<path d="M79.9822 95.0187C79.8267 97.7786 79.9801 100.6 80.8847 103.233C81.7805 105.841 83.3226 108.1 85.2107 110.091C85.9882 110.91 87.2258 109.67 86.4504 108.851C84.7025 107.009 83.2612 104.913 82.4793 102.479C81.7039 100.063 81.5922 97.5333 81.7345 95.0187C81.7981 93.8907 80.0458 93.895 79.9822 95.0187Z" fill="black"/>
</g>
<path d="M94 63C94 83.4223 77.223 100 56.5 100C35.777 100 19 83.4223 19 63C19 42.5777 35.777 26 56.5 26C77.223 26 94 42.5777 94 63Z" stroke="black" stroke-width="2"/>
<path d="M66.4912 20.3937C65.9842 18.5922 65.0635 16.856 64.1851 15.5931C61.9103 12.3278 58.2274 9.36874 54.0066 10.3722C50.0372 11.3161 46.8754 14.8035 44.4102 17.8473C41.8213 21.0439 39.7763 24.6236 37.8404 28.2382C37.5028 28.8678 37.4988 29.4919 37.6978 30.0259C36.2801 31.7106 34.536 33.1238 33.5088 35.1224C33.3214 35.4869 33.2889 35.8475 33.3603 36.174C31.4241 37.6906 29.4017 39.102 27.2989 40.3992C27.0417 40.5588 26.8604 40.7557 26.7413 40.9748C26.5698 41.0319 26.3984 41.0889 26.2239 41.144C25.8261 41.2679 25.5445 41.5032 25.3655 41.7904C23.5515 42.3912 21.7639 43.0742 20.0138 43.8422C17.8342 44.5025 15.7352 45.4041 13.7563 46.5486C13.4669 46.7155 13.2684 46.9396 13.145 47.1857C12.059 47.7902 11.1101 48.6104 10.4696 49.7371C9.47303 51.4925 9.45195 53.7824 10.7438 55.4034C13.8752 59.3315 19.6634 56.2043 22.8424 54.1101C23.1878 53.8812 23.3947 53.5798 23.4903 53.2569C25.0706 52.2781 26.48 51.0264 27.6209 49.5525C27.7144 49.5183 27.8055 49.4847 27.8984 49.448C28.4343 49.2461 28.6747 48.7943 28.6946 48.3094C30.4717 47.099 32.0915 45.6645 33.5034 44.0228C33.9 43.5615 33.9678 43.0242 33.8369 42.5501C35.4632 41.27 37.0925 39.9919 38.7187 38.7118C38.7431 38.6933 38.762 38.6734 38.7839 38.6555C39.1435 38.6726 39.5288 38.5853 39.9272 38.3496C44.9434 35.3792 50.0049 32.3909 55.6027 30.6572C58.301 29.8223 61.3495 29.4325 63.8662 28.1168C65.8303 27.0899 67.3288 25.0858 67.2804 22.8791C67.2935 22.845 67.3065 22.8109 67.3226 22.7787C67.7726 21.6821 67.2816 20.8222 66.4912 20.3937Z" fill="#5869A6"/>
<path d="M44.1461 16.3155C44.0301 16.1704 43.87 16.0483 43.6617 15.9657C42.2757 15.4073 41.3051 13.8174 40.2573 12.8033C39.1691 11.749 37.9739 10.7605 36.6402 10.0318C35.6531 9.49213 34.6209 9.10808 33.5682 8.89745C33.4283 8.55523 33.1168 8.30383 32.6143 8.33205C31.3581 8.40384 30.1936 8.63924 29.1516 9.08315C28.9303 9.14892 28.7075 9.22018 28.4851 9.30435C28.2366 9.39962 28.0694 9.54399 27.9704 9.71445C27.0514 10.3227 26.2646 11.1476 25.6424 12.252C24.8986 13.5762 24.2195 14.8415 23.1815 15.9675C22.4684 16.7394 21.6879 17.4434 20.8871 18.1261C19.3776 19.0967 17.8765 20.0809 16.5377 21.2776C15.551 21.7246 14.5577 22.1653 13.7021 22.8474C12.2687 23.9929 11.5283 25.5838 11.7253 27.4269C11.9702 29.7215 12.7785 32.039 13.3349 34.2759C13.9514 36.7667 14.5704 39.2569 15.1869 41.7476C15.1545 42.2692 15.0951 42.7864 15.0039 43.3004C14.6364 43.7525 14.7752 44.3079 15.1383 44.6722C15.2665 44.8483 15.4489 44.9887 15.6899 45.0666C16.1511 45.2113 16.7725 45.0081 17.023 44.567C18.9063 43.1378 21.167 42.3423 23.278 41.3107C30.307 39.1436 34.927 32.8899 38.3892 26.6494C38.4429 26.5541 38.4782 26.4578 38.5036 26.3638C38.6235 26.2742 38.7307 26.1513 38.8173 25.9836C40.3637 23.0338 42.1864 20.2602 44.2796 17.672C44.6988 17.1615 44.5334 16.638 44.1461 16.3155Z" fill="#35497D"/>
<path d="M21.321 21.0944C22.5727 20.2472 23.6552 19.3059 24.4857 18.0322C25.29 16.8034 23.3606 15.5892 22.5588 16.8175C21.951 17.7447 21.1615 18.4663 20.2448 19.0844C19.7358 19.4283 19.4679 20.0447 19.7794 20.6285C20.046 21.129 20.8096 21.4389 21.321 21.0944Z" fill="white"/>
<path d="M26.275 15.8791C27.7433 14.4635 28.5205 11.3737 30.7577 11.0822C32.2106 10.8931 31.6988 8.66941 30.2539 8.85929C27.2026 9.26007 26.622 12.3806 24.7187 14.2142C23.661 15.2304 25.2135 16.9014 26.275 15.8791Z" fill="white"/>
<path d="M49.8052 14.7262C51.8465 11.955 55.7259 11.2211 58.596 13.1829C60.1321 14.2318 61.1926 15.9779 62.3044 17.4346C63.498 18.9999 64.694 20.5647 65.8876 22.1301C66.7773 23.2943 68.4381 21.7312 67.5525 20.5738C65.9601 18.486 64.3745 16.3941 62.7733 14.3135C61.4989 12.6548 60.1561 11.1985 58.1727 10.3991C54.4027 8.87755 50.2383 10.3019 47.8734 13.5126C47.0062 14.6933 48.9394 15.9015 49.8052 14.7262Z" fill="white"/>
<path d="M51.0067 11.9272C55.372 8.66298 60.6935 12.2634 63.3832 15.8812C64.7697 17.7482 66.3665 20.0843 66.7258 22.4256C67.1154 24.9808 65.2635 26.4912 63.1092 27.3431C60.9641 28.1903 58.6423 28.6127 56.4419 29.2958C54.0225 30.0441 51.6363 30.9044 49.3062 31.8974C44.6185 33.8999 40.1586 36.4949 36.2864 39.8265C32.3052 43.2504 29.1094 47.47 25.1853 50.951C23.2032 52.7116 21.0367 54.2778 18.5998 55.3495C16.6685 56.2001 13.8768 57.0588 11.9661 55.6976C9.68392 54.0725 10.709 50.8046 12.2667 49.096C13.9302 47.2699 16.2465 46.0672 18.4459 45.0129C22.8658 42.8945 27.6438 41.3934 31.4899 38.2443C35.6995 34.7972 38.1313 29.7848 40.5645 25.0421C43.1536 20.0018 46.4277 15.3489 51.0067 11.9272C51.9193 11.2451 50.7025 9.95511 49.7967 10.633C45.2977 13.9951 41.9296 18.5887 39.3561 23.5372C36.8365 28.38 34.4814 33.5932 30.1159 37.0859C25.5147 40.7646 19.5374 42.0493 14.5566 45.0843C12.5033 46.3365 10.4621 47.9054 9.45999 50.1632C8.58902 52.129 8.63482 54.6453 10.0767 56.3439C13.5234 60.403 20.1111 56.9649 23.4452 54.6043C28.2298 51.2191 31.7618 46.4896 35.9867 42.4912C40.3629 38.3468 45.6095 35.2931 51.1759 33.0316C53.8578 31.9408 56.6146 31.0432 59.4061 30.2754C61.679 29.6486 64.1102 29.1702 66.067 27.7789C71.1604 24.1523 67.1197 17.6674 64.1804 14.0256C60.7748 9.80399 54.6648 6.99777 49.7997 10.6349C48.884 11.3151 50.0984 12.6057 51.0067 11.9272Z" fill="black"/>
<path d="M15.7011 46.2843C16.5686 44.6699 16.4765 43.0262 16.1584 41.2676C15.7483 39.0001 15.0602 36.8008 14.4363 34.587C13.7835 32.268 13.155 29.8734 13.133 27.4505C13.1136 25.2113 13.8659 23.6385 15.8293 22.5053C17.5381 21.5207 19.2239 20.6063 20.7455 19.3344C22.3041 18.0307 23.6392 16.4972 24.7966 14.8326C26.0334 13.0487 27.1697 11.028 29.0557 9.83962C31.0781 8.56583 33.451 8.91866 35.4223 10.1234C36.4656 10.762 37.3157 11.6599 38.2149 12.4766C39.0841 13.2638 39.9675 14.0451 40.7418 14.9291C41.7509 16.0818 43.2411 17.902 45.0185 17.403C46.1121 17.0954 45.7276 15.3648 44.6266 15.6741C43.8211 15.9009 42.878 14.7305 42.4495 14.2148C41.7524 13.3731 40.9883 12.6141 40.185 11.8769C38.6283 10.451 37.1628 8.90048 35.2107 8.02121C31.2061 6.22051 27.6371 7.94612 25.1256 11.255C23.7803 13.0297 22.6891 14.9519 21.1274 16.5627C19.5739 18.1639 17.7927 19.4246 15.8334 20.4841C14.226 21.3548 12.6999 22.298 11.9415 24.0383C11.1816 25.7842 11.3019 27.7928 11.5309 29.6391C11.8653 32.3289 12.7009 34.9154 13.4329 37.515C14.0629 39.7561 15.3957 43.1154 14.2019 45.3413C13.665 46.3407 15.1609 47.2923 15.7011 46.2843Z" fill="black"/>
</svg>
